<svg width="142" height="140" viewBox="0 0 142 140" xmlns="http://www.w3.org/2000/svg">
    <title>Artboard</title>
    <g fill="#e6e6e6" fill-rule="evenodd">
        <path d="M7.172 38.47c1.12 4.127 5.956 3.222 7.628.71-.697 4.762-1.922 5.504-2.657 6.538h7.797c-.79-1.106-2.224-1.776-3.066-6.603 1.686 2.507 6.75 3.377 7.855-.69 1.085-4-3.81-6.28-7.063-4.468 3.12-2.09 4.24-8.957-1.67-8.957-5.968 0-4.972 7-1.815 8.933-3.302-1.573-8.16.304-7.01 4.538zM127.19 110.755c-1.024 3.64-1.587 3.925-2.208 4.884h5.85c-.75-.97-1.54-1.246-2.338-4.864 5.532 3.17 11.363-2.36 5.224-8.74-4.014-3.503-5.906-6.036-5.906-6.036s-2.2 2.598-5.906 6.037c-6.854 6.986-.136 12.053 5.283 8.718zM56.806 113.093c-.02-.035-4.64-5-6.183-6.873-1.788-2.17-2.3-2.864-2.818-3.822-.305-.566-.622-1.427-.726-1.975-.105-.548-.107-1.443-.004-1.91.415-1.896 2.103-3.326 4.122-3.493 2.313-.19 4.28.975 5.313 3.15l.232.484.174-.384c.258-.57.507-.955.926-1.435 1.068-1.224 2.34-1.824 3.87-1.826.687-.002 1.08.055 1.665.24.874.275 1.533.705 2.12 1.384 1.526 1.767 1.345 4.175-.536 7.124-.438.688-1.23 1.705-2.32 2.98-1.254 1.47-5.834 6.355-5.834 6.355zM81 34.418l7.074 10.42 7.13-10.42L88.074 24"/>
    </g>
</svg>
